<svg width="82" height="57" viewBox="0 0 82 57" fill="none" xmlns="http://www.w3.org/2000/svg">
  <path d="M0.999634 55.9734H80.9996" stroke="black" stroke-width="1.005" stroke-linecap="round"/>
  <path d="M41.4357 45.5133L36.4024 37.9633C36.2791 37.7799 36.0724 37.6699 35.8524 37.6699H19.2057V45.5166H41.4357V45.5133Z" stroke="black" stroke-width="1.005" stroke-miterlimit="10" stroke-linecap="round" stroke-linejoin="round"/>
  <path d="M39.8655 55.9766C41.3107 55.9766 42.4822 54.8051 42.4822 53.36C42.4822 51.9148 41.3107 50.7433 39.8655 50.7433C38.4204 50.7433 37.2488 51.9148 37.2488 53.36C37.2488 54.8051 38.4204 55.9766 39.8655 55.9766Z" fill="black"/>
  <path d="M24.1725 55.9766C25.6177 55.9766 26.7892 54.8051 26.7892 53.36C26.7892 51.9148 25.6177 50.7433 24.1725 50.7433C22.7274 50.7433 21.5558 51.9148 21.5558 53.36C21.5558 54.8051 22.7274 55.9766 24.1725 55.9766Z" fill="black"/>
  <path d="M41.4191 45.5133H36.2024H28.3591H20.5124H19.2057V37.6666H18.2524C18.0324 37.6666 17.8257 37.7766 17.7024 37.96L12.6691 45.51V52.6933C12.6691 53.06 12.9657 53.3566 13.3324 53.3566H20.5157H28.3624H36.2091H46.0091C46.3757 53.3566 46.6724 53.06 46.6724 52.6933V50.7566C46.6657 47.86 44.3157 45.5133 41.4191 45.5133Z" fill="#CAF8FF" stroke="black" stroke-width="1.005" stroke-miterlimit="10" stroke-linecap="round" stroke-linejoin="round"/>
  <path d="M36.2059 45.5133L30.9726 37.6666" stroke="black" stroke-width="1.005" stroke-miterlimit="10" stroke-linecap="round" stroke-linejoin="round"/>
  <path d="M19.2057 45.5133L24.4357 53.36" stroke="black" stroke-width="1.005" stroke-miterlimit="10" stroke-linecap="round" stroke-linejoin="round"/>
  <path d="M41.4359 53.36V50.76C41.4359 47.8633 39.0859 45.5133 36.1892 45.5133" stroke="black" stroke-width="1.005" stroke-miterlimit="10" stroke-linecap="round" stroke-linejoin="round"/>
  <path d="M33.5893 55.9766C35.0344 55.9766 36.2059 54.8051 36.2059 53.36C36.2059 51.9148 35.0344 50.7433 33.5893 50.7433C32.1441 50.7433 30.9726 51.9148 30.9726 53.36C30.9726 54.8051 32.1441 55.9766 33.5893 55.9766Z" fill="black"/>
  <path d="M17.8958 55.9766C19.3409 55.9766 20.5124 54.8051 20.5124 53.36C20.5124 51.9148 19.3409 50.7433 17.8958 50.7433C16.4506 50.7433 15.2791 51.9148 15.2791 53.36C15.2791 54.8051 16.4506 55.9766 17.8958 55.9766Z" fill="black"/>
  <path d="M15.2826 49.1733C15.8607 49.1733 16.3293 48.7047 16.3293 48.1266C16.3293 47.5486 15.8607 47.08 15.2826 47.08C14.7046 47.08 14.236 47.5486 14.236 48.1266C14.236 48.7047 14.7046 49.1733 15.2826 49.1733Z" fill="black"/>
  <path d="M37.1026 27.18L32.0693 19.63C31.946 19.4467 31.7393 19.3367 31.5193 19.3367H14.8726V27.1833H37.1026V27.18Z" stroke="black" stroke-width="1.005" stroke-miterlimit="10" stroke-linecap="round" stroke-linejoin="round"/>
  <path d="M35.5329 37.6434C36.978 37.6434 38.1495 36.4718 38.1495 35.0267C38.1495 33.5816 36.978 32.41 35.5329 32.41C34.0877 32.41 32.9162 33.5816 32.9162 35.0267C32.9162 36.4718 34.0877 37.6434 35.5329 37.6434Z" fill="black"/>
  <path d="M19.8394 37.6434C21.2845 37.6434 22.4561 36.4718 22.4561 35.0267C22.4561 33.5816 21.2845 32.41 19.8394 32.41C18.3942 32.41 17.2227 33.5816 17.2227 35.0267C17.2227 36.4718 18.3942 37.6434 19.8394 37.6434Z" fill="black"/>
  <path d="M37.0862 27.18H31.8728H24.0262H16.1795H14.8728V19.3333H13.9195C13.6995 19.3333 13.4928 19.4433 13.3695 19.6266L8.33282 27.18V34.3633C8.33282 34.73 8.62949 35.0266 8.99616 35.0266H16.1795H24.0262H31.8728H41.6728C42.0395 35.0266 42.3362 34.73 42.3362 34.3633V32.4266C42.3328 29.5266 39.9828 27.18 37.0862 27.18Z" fill="#BBFFDA" stroke="black" stroke-width="1.005" stroke-miterlimit="10" stroke-linecap="round" stroke-linejoin="round"/>
  <path d="M31.8723 27.18L26.639 19.3333" stroke="black" stroke-width="1.005" stroke-miterlimit="10" stroke-linecap="round" stroke-linejoin="round"/>
  <path d="M14.8726 27.1799L20.1026 35.0266" stroke="black" stroke-width="1.005" stroke-miterlimit="10" stroke-linecap="round" stroke-linejoin="round"/>
  <path d="M37.1023 35.0266V32.4266C37.1023 29.5299 34.7523 27.1799 31.8556 27.1799" stroke="black" stroke-width="1.005" stroke-miterlimit="10" stroke-linecap="round" stroke-linejoin="round"/>
  <path d="M29.2556 37.6434C30.7008 37.6434 31.8723 36.4718 31.8723 35.0267C31.8723 33.5816 30.7008 32.41 29.2556 32.41C27.8105 32.41 26.639 33.5816 26.639 35.0267C26.639 36.4718 27.8105 37.6434 29.2556 37.6434Z" fill="black"/>
  <path d="M13.5627 37.6434C15.0078 37.6434 16.1793 36.4718 16.1793 35.0267C16.1793 33.5816 15.0078 32.41 13.5627 32.41C12.1175 32.41 10.946 33.5816 10.946 35.0267C10.946 36.4718 12.1175 37.6434 13.5627 37.6434Z" fill="black"/>
  <path d="M10.949 30.8399C11.5271 30.8399 11.9957 30.3713 11.9957 29.7932C11.9957 29.2152 11.5271 28.7466 10.949 28.7466C10.371 28.7466 9.90234 29.2152 9.90234 29.7932C9.90234 30.3713 10.371 30.8399 10.949 30.8399Z" fill="black"/>
  <path d="M39.4357 8.84663L34.4024 1.29663C34.2791 1.1133 34.0724 1.0033 33.8524 1.0033H17.2057V8.84996H39.4357V8.84663Z" stroke="black" stroke-width="1.005" stroke-miterlimit="10" stroke-linecap="round" stroke-linejoin="round"/>
  <path d="M37.8655 19.31C39.3107 19.31 40.4822 18.1385 40.4822 16.6933C40.4822 15.2482 39.3107 14.0767 37.8655 14.0767C36.4204 14.0767 35.2488 15.2482 35.2488 16.6933C35.2488 18.1385 36.4204 19.31 37.8655 19.31Z" fill="black"/>
  <path d="M22.172 19.31C23.6172 19.31 24.7887 18.1385 24.7887 16.6933C24.7887 15.2482 23.6172 14.0767 22.172 14.0767C20.7269 14.0767 19.5554 15.2482 19.5554 16.6933C19.5554 18.1385 20.7269 19.31 22.172 19.31Z" fill="black"/>
  <path d="M39.4192 8.84667H34.2026H26.3592H18.5126H17.2059V1H16.2526C16.0326 1 15.8259 1.11 15.7026 1.29333L10.6659 8.84667V16.03C10.6659 16.3967 10.9626 16.6933 11.3292 16.6933H18.5126H26.3592H34.2059H44.0059C44.3726 16.6933 44.6692 16.3967 44.6692 16.03V14.0933C44.6659 11.1933 42.3159 8.84667 39.4192 8.84667Z" fill="#F4EBFF" stroke="black" stroke-width="1.005" stroke-miterlimit="10" stroke-linecap="round" stroke-linejoin="round"/>
  <path d="M34.2054 8.84667L28.9721 1" stroke="black" stroke-width="1.005" stroke-miterlimit="10" stroke-linecap="round" stroke-linejoin="round"/>
  <path d="M17.2057 8.84668L22.4357 16.6933" stroke="black" stroke-width="1.005" stroke-miterlimit="10" stroke-linecap="round" stroke-linejoin="round"/>
  <path d="M39.4354 16.6933V14.0933C39.4354 11.1967 37.0854 8.84668 34.1887 8.84668" stroke="black" stroke-width="1.005" stroke-miterlimit="10" stroke-linecap="round" stroke-linejoin="round"/>
  <path d="M31.5888 19.31C33.0339 19.31 34.2054 18.1385 34.2054 16.6933C34.2054 15.2482 33.0339 14.0767 31.5888 14.0767C30.1436 14.0767 28.9721 15.2482 28.9721 16.6933C28.9721 18.1385 30.1436 19.31 31.5888 19.31Z" fill="black"/>
  <path d="M15.8953 19.31C17.3404 19.31 18.512 18.1385 18.512 16.6933C18.512 15.2482 17.3404 14.0767 15.8953 14.0767C14.4501 14.0767 13.2786 15.2482 13.2786 16.6933C13.2786 18.1385 14.4501 19.31 15.8953 19.31Z" fill="black"/>
  <path d="M13.2821 12.5067C13.8602 12.5067 14.3288 12.0381 14.3288 11.46C14.3288 10.8819 13.8602 10.4133 13.2821 10.4133C12.7041 10.4133 12.2355 10.8819 12.2355 11.46C12.2355 12.0381 12.7041 12.5067 13.2821 12.5067Z" fill="black"/>
  <path d="M66.6663 6.97333H62.3329V36.9733H66.6663C70.5329 36.9733 73.6663 33.84 73.6663 29.9733V13.9733C73.6663 10.11 70.5329 6.97333 66.6663 6.97333Z" fill="white" stroke="black" stroke-width="1.005" stroke-miterlimit="10" stroke-linecap="round" stroke-linejoin="round"/>
  <path d="M62.3327 36.9733C58.466 36.9733 55.3327 33.84 55.3327 29.9733V13.9733C55.3327 10.1067 58.466 6.97333 62.3327 6.97333C66.1994 6.97333 69.3327 10.1067 69.3327 13.9733V29.9733C69.3327 33.84 66.1994 36.9733 62.3327 36.9733Z" fill="white"/>
  <path d="M69.3327 29.9733C69.3327 33.84 66.1994 36.9733 62.3327 36.9733C58.466 36.9733 55.3327 33.84 55.3327 29.9733V13.9733C55.3327 10.1067 58.466 6.97333 62.3327 6.97333C66.1994 6.97333 69.3327 10.1067 69.3327 13.9733" stroke="black" stroke-width="1.005" stroke-miterlimit="10" stroke-linecap="round" stroke-linejoin="round"/>
  <path d="M62.3328 16.64C63.8056 16.64 64.9995 15.4461 64.9995 13.9733C64.9995 12.5005 63.8056 11.3066 62.3328 11.3066C60.86 11.3066 59.6661 12.5005 59.6661 13.9733C59.6661 15.4461 60.86 16.64 62.3328 16.64Z" fill="#963EFF" stroke="black" stroke-width="1.005" stroke-miterlimit="10" stroke-linecap="round" stroke-linejoin="round"/>
  <path d="M62.3328 24.8067C63.8056 24.8067 64.9995 23.6128 64.9995 22.14C64.9995 20.6672 63.8056 19.4733 62.3328 19.4733C60.86 19.4733 59.6661 20.6672 59.6661 22.14C59.6661 23.6128 60.86 24.8067 62.3328 24.8067Z" fill="#1EE592" stroke="black" stroke-width="1.005" stroke-miterlimit="10" stroke-linecap="round" stroke-linejoin="round"/>
  <path d="M62.3328 32.9733C63.8056 32.9733 64.9995 31.7794 64.9995 30.3067C64.9995 28.8339 63.8056 27.64 62.3328 27.64C60.86 27.64 59.6661 28.8339 59.6661 30.3067C59.6661 31.7794 60.86 32.9733 62.3328 32.9733Z" fill="#33CCFF" stroke="black" stroke-width="1.005" stroke-miterlimit="10" stroke-linecap="round" stroke-linejoin="round"/>
  <path d="M64.666 36.9734V55.9734" stroke="black" stroke-width="1.005" stroke-miterlimit="10" stroke-linecap="round" stroke-linejoin="round"/>
  <path d="M69.3331 26.3067V18.9733" stroke="black" stroke-width="1.005" stroke-miterlimit="10" stroke-linecap="round" stroke-linejoin="round"/>
</svg>
