<svg width="184" height="24" viewBox="0 0 184 24" fill="none" xmlns="http://www.w3.org/2000/svg">
  <g clip-path="url(#clip0)">
    <g clip-path="url(#clip1)">
      <path d="M48.6903 11.8186C49.0104 10.403 50.1054 9.40893 51.6886 9.40893C53.1548 9.40893 54.2333 10.2176 54.518 11.8186H48.6903ZM51.8077 18.9803C54.3182 18.9803 55.9698 17.8848 56.8799 16.8401C57.1493 16.5369 57.0986 16.2489 56.8292 16.0483L55.447 15.0204C55.1603 14.8012 54.9403 14.8853 54.7224 15.1049C54.3845 15.4427 53.5598 16.335 51.8406 16.335C50.3748 16.335 48.9424 15.425 48.6392 13.9423H56.9804C57.3182 13.9423 57.5365 13.74 57.5365 13.403V12.8963C57.5365 9.59348 55.4639 6.7793 51.6219 6.7793C48.2013 6.7793 45.4711 9.27338 45.4711 12.93C45.4711 16.5867 48.1835 18.9803 51.8073 18.9803H51.8077ZM34.6865 18.7788H44.2562C44.594 18.7788 44.8123 18.5765 44.8123 18.2396V16.6547C44.8123 16.3168 44.5932 16.1154 44.2562 16.1154H38.2596L44.1738 9.83038C44.4095 9.57701 44.4433 9.40809 44.4433 9.05505V7.52169C44.4433 7.18386 44.2241 6.98242 43.8871 6.98242H34.7875C34.4496 6.98242 34.2317 7.1847 34.2317 7.52169L34.2148 9.10572C34.2148 9.44356 34.4336 9.645 34.771 9.645H40.3487L34.4002 15.9794C34.1642 16.2328 34.1304 16.4017 34.1304 16.7548V18.2374C34.1304 18.5757 34.3495 18.7788 34.6865 18.7788ZM25.8736 16.2168C23.9526 16.2168 22.5709 14.7337 22.5709 12.8806C22.5709 11.0276 23.9526 9.54449 25.8736 9.54449C27.7947 9.54449 29.1426 11.0276 29.1426 12.8806C29.1426 14.7337 27.7947 16.2168 25.8736 16.2168ZM25.3344 18.9803C27.154 18.9803 28.4518 18.2556 29.0582 17.1602V18.2387C29.0582 18.5765 29.2773 18.778 29.6143 18.778H31.5691C31.907 18.778 32.1253 18.5757 32.1253 18.2387V7.52169C32.1253 7.18386 31.9061 6.98242 31.5691 6.98242H29.6143C29.2765 6.98242 29.0582 7.1847 29.0582 7.52169V8.6015C28.4518 7.50607 27.154 6.78141 25.4015 6.78141C22.1325 6.78141 19.4049 9.27549 19.4049 12.9321C19.4049 16.5888 22.1325 18.9803 25.3344 18.9803ZM10.6233 6.98242H8.4835C8.16298 6.98242 7.94423 7.10024 7.82599 7.47102L5.46704 14.919L3.24281 7.45413C3.15835 7.16781 2.98944 6.98242 2.60219 6.98242H0.529562C0.108534 6.98242 -0.0937462 7.25016 0.0418108 7.67245L3.59754 18.2548C3.71578 18.6099 3.9168 18.7788 4.2369 18.7788H6.5118C6.8319 18.7788 7.10302 18.6272 7.21957 18.2564L9.51137 10.96L11.8032 18.2564C11.921 18.6272 12.1571 18.7788 12.5105 18.7788H14.7352C15.1059 18.7788 15.3078 18.5934 15.426 18.2564L18.9814 7.67245C19.1165 7.25016 18.9142 6.98158 18.4928 6.98158H16.4877C16.1 6.98158 15.9315 7.16696 15.8471 7.45328L13.6397 14.919L11.2808 7.47102C11.1625 7.10024 10.9434 6.98242 10.6233 6.98242Z" fill="black"/>
      <path d="M67.6066 6.69482C70.8351 6.69482 73.5044 9.26239 73.5044 12.8979C73.5044 16.5588 70.8604 19.1264 67.5809 19.1264C65.6235 19.1264 63.8946 18.0842 63.132 16.6095V23.6006C63.1287 23.7142 63.0821 23.8222 63.0018 23.9026C62.9215 23.983 62.8135 24.0297 62.7 24.0331H61.8102C61.6966 24.0297 61.5886 23.983 61.5083 23.9026C61.428 23.8222 61.3815 23.7142 61.3782 23.6006V7.43215C61.3815 7.31858 61.428 7.21055 61.5083 7.13017C61.5886 7.04978 61.6966 7.00312 61.8102 6.99972H62.7C62.8137 7.00291 62.9219 7.04948 63.0024 7.12988C63.0828 7.21029 63.1295 7.31844 63.1328 7.43215V9.23705C63.8693 7.76239 65.5728 6.69482 67.6066 6.69482ZM67.4284 17.4993C69.92 17.4993 71.6995 15.4908 71.6995 12.8963C71.6995 10.3287 69.92 8.29322 67.4284 8.29322C64.8862 8.29322 63.1066 10.327 63.1066 12.8963C63.1066 15.4908 64.8862 17.4993 67.4284 17.4993Z" fill="black"/>
      <path d="M81.2324 6.66943C83.2662 6.66943 84.9187 7.76234 85.656 9.23699V7.4321C85.6594 7.31856 85.706 7.21059 85.7863 7.13023C85.8666 7.04986 85.9745 7.00317 86.088 6.99967H87.0036C87.232 6.99967 87.4103 7.20322 87.4103 7.4321V18.3637C87.4103 18.5925 87.232 18.7957 87.0036 18.7957H86.088C85.9745 18.7923 85.8666 18.7457 85.7863 18.6654C85.706 18.5851 85.6594 18.4772 85.656 18.3637V16.5588C84.8933 18.033 83.2662 19.1263 81.2324 19.1263C77.9782 19.1263 75.2834 16.5588 75.2834 12.8979C75.2834 9.23699 77.9782 6.66943 81.2324 6.66943ZM81.3849 17.4992C83.8764 17.4992 85.6814 15.4654 85.6814 12.8962C85.6814 10.3029 83.8764 8.29316 81.3849 8.29316C78.8684 8.29316 77.0884 10.3012 77.0884 12.8962C77.0884 15.4654 78.8684 17.4992 81.3849 17.4992Z" fill="black"/>
      <path d="M95.4967 6.97412C95.6999 6.97412 95.9034 7.12657 95.9034 7.40655V8.32167C95.9034 8.60123 95.6999 8.72834 95.5234 8.72834H95.0913C93.286 8.72834 91.8625 9.7959 91.8625 12.7706V18.3871C91.8597 18.4941 91.816 18.5959 91.7403 18.6716C91.6646 18.7472 91.5628 18.791 91.4558 18.7938H90.5399C90.4263 18.7905 90.3182 18.7439 90.2379 18.6636C90.1575 18.5833 90.1108 18.4753 90.1074 18.3618V7.43189C90.1108 7.31828 90.1575 7.21025 90.2378 7.12987C90.3182 7.0495 90.4262 7.00285 90.5399 6.99946H91.3785C91.5821 6.99946 91.7856 7.20301 91.7856 7.43189V9.18611C92.2176 8.06745 93.4123 6.97412 95.0905 6.97412H95.4967Z" fill="black"/>
      <path d="M99.6151 8.49968H97.7844C97.5559 8.49968 97.3777 8.29655 97.3777 8.06767V7.43211C97.3777 7.20323 97.5559 6.99968 97.7844 6.99968H99.6151V3.16101C99.6184 3.04748 99.6649 2.9395 99.7453 2.85918C99.8256 2.77887 99.9336 2.7323 100.047 2.729H100.962C101.191 2.729 101.369 2.93213 101.369 3.16101V6.99968H105.157C105.386 6.99968 105.564 7.20323 105.564 7.43211V8.06767C105.564 8.29655 105.386 8.49968 105.157 8.49968H101.369V15.2366C101.369 16.6348 102.233 17.3721 103.301 17.3721C103.801 17.369 104.291 17.2382 104.725 16.992C105.03 16.7885 105.285 16.7885 105.462 17.0431L105.793 17.5499C105.828 17.5927 105.853 17.6422 105.868 17.6952C105.883 17.7483 105.888 17.8039 105.88 17.8585C105.873 17.9132 105.855 17.9659 105.827 18.0133C105.799 18.0607 105.761 18.1019 105.717 18.1344C105.056 18.6681 104.166 18.9735 103.047 18.9735C101.318 18.9735 99.6151 17.9566 99.6151 15.5161V8.49968Z" fill="black"/>
      <path d="M117.156 12.2369C117.156 9.77069 115.834 8.2707 113.419 8.2707C111.004 8.2707 109.479 9.92314 109.479 12.2369V18.3889C109.476 18.4958 109.432 18.5976 109.356 18.6733C109.281 18.7489 109.179 18.7927 109.072 18.7956H108.156C108.043 18.7922 107.935 18.7456 107.855 18.6653C107.774 18.585 107.728 18.4771 107.724 18.3636V7.43202C107.728 7.31848 107.774 7.21051 107.855 7.13015C107.935 7.04978 108.043 7.00309 108.156 6.99959H109.072C109.275 6.99959 109.479 7.20314 109.479 7.43202V9.0587C110.165 7.68624 111.767 6.69385 113.826 6.69385C117.003 6.69385 118.91 8.80533 118.91 11.829V18.3889C118.91 18.6178 118.707 18.7956 118.478 18.7956H117.588C117.359 18.7956 117.156 18.6178 117.156 18.3889V12.2369Z" fill="black"/>
      <path d="M132.79 12.6183V12.9486C132.79 13.1774 132.664 13.381 132.384 13.381H122.622C122.799 15.7703 124.579 17.5756 126.994 17.5756C128.723 17.5756 129.79 16.7365 130.579 15.8468C130.757 15.6432 130.959 15.5934 131.189 15.745L131.925 16.2028C132.154 16.3552 132.128 16.5828 132.026 16.7365C131.038 18.1876 129.231 19.1263 126.942 19.1263C123.383 19.1263 120.815 16.4823 120.815 12.9232C120.815 9.44054 123.357 6.66943 126.865 6.66943C130.223 6.66943 132.79 9.08454 132.79 12.6183ZM126.867 8.16943C124.579 8.16943 122.952 9.84721 122.672 12.0841H131.062C130.807 9.669 129.104 8.16943 126.867 8.16943Z" fill="black"/>
      <path d="M140.035 6.97412C140.239 6.97412 140.442 7.12657 140.442 7.40655V8.32167C140.442 8.60123 140.239 8.72834 140.062 8.72834H139.63C137.825 8.72834 136.401 9.7959 136.401 12.7706V18.3871C136.399 18.4941 136.355 18.5959 136.279 18.6716C136.203 18.7473 136.101 18.791 135.994 18.7938H135.079C134.966 18.7905 134.858 18.7439 134.777 18.6636C134.697 18.5833 134.651 18.4753 134.647 18.3618V7.43189C134.651 7.31831 134.697 7.21029 134.777 7.1299C134.858 7.04952 134.966 7.00286 135.079 6.99946H135.918C136.121 6.99946 136.325 7.20301 136.325 7.43189V9.18611C136.757 8.06745 137.952 6.97412 139.63 6.97412H140.035Z" fill="black"/>
      <path d="M153.777 12.2369C153.777 9.77066 152.455 8.27067 150.04 8.27067C147.625 8.27067 146.099 9.92311 146.099 12.2369V18.3889C146.097 18.4958 146.053 18.5976 145.977 18.6732C145.901 18.7489 145.8 18.7927 145.693 18.7955H144.778C144.664 18.7923 144.556 18.7457 144.476 18.6654C144.395 18.5851 144.349 18.4771 144.345 18.3635V1.43201C144.349 1.31847 144.395 1.21054 144.476 1.13026C144.556 1.04998 144.664 1.00339 144.778 1L145.691 1C145.798 1.00288 145.9 1.04665 145.976 1.1223C146.052 1.19795 146.095 1.29972 146.098 1.40667V9.05867C146.784 7.68621 148.386 6.69381 150.445 6.69381C153.623 6.69381 155.53 8.80529 155.53 11.8289V18.3889C155.53 18.6178 155.327 18.7955 155.098 18.7955H154.209C153.98 18.7955 153.777 18.6178 153.777 18.3889V12.2369Z" fill="black"/>
      <path d="M159.827 13.7111C159.827 16.1008 161.098 17.6008 163.513 17.6008C165.903 17.6008 167.353 15.9737 167.353 13.7111V7.43194C167.356 7.31837 167.402 7.21034 167.483 7.12996C167.563 7.04957 167.671 7.00291 167.785 6.99951H168.674C168.788 7.00291 168.896 7.04957 168.976 7.12996C169.056 7.21034 169.103 7.31837 169.106 7.43194V18.3635C169.103 18.477 169.056 18.585 168.976 18.6653C168.896 18.7456 168.788 18.7922 168.674 18.7955H167.785C167.556 18.7955 167.353 18.6177 167.353 18.3888V16.7364C166.666 18.1346 165.141 19.1262 163.081 19.1262C159.954 19.1262 158.073 17.067 158.073 14.0164V7.43194C158.073 7.20306 158.277 6.99951 158.48 6.99951H159.395C159.509 7.00291 159.617 7.04957 159.697 7.12996C159.777 7.21034 159.824 7.31837 159.827 7.43194V13.7111Z" fill="black"/>
      <path d="M177.902 6.69466C181.156 6.69466 183.8 9.26222 183.8 12.9231C183.8 16.5586 181.156 19.1262 177.876 19.1262C175.919 19.1262 174.216 18.084 173.427 16.6093V18.3635C173.424 18.4771 173.377 18.585 173.297 18.6654C173.217 18.7457 173.109 18.7922 172.995 18.7955H172.105C171.992 18.7922 171.884 18.7457 171.804 18.6654C171.723 18.585 171.677 18.4771 171.673 18.3635V1.43201C171.677 1.31851 171.723 1.21058 171.804 1.13029C171.884 1.05 171.992 1.00339 172.105 1L173.02 1C173.249 1 173.427 1.20355 173.427 1.43201V9.21154C174.19 7.73688 175.868 6.69466 177.902 6.69466ZM177.724 17.4991C180.215 17.4991 182.02 15.4907 182.02 12.9231C182.02 10.3302 180.215 8.29643 177.724 8.29643C175.207 8.29643 173.402 10.3302 173.402 12.9231C173.402 15.4907 175.207 17.4991 177.724 17.4991Z" fill="black"/>
    </g>
  </g>
  <defs>
    <clipPath id="clip0">
      <rect width="184" height="24" fill="white"/>
    </clipPath>
    <clipPath id="clip1">
      <rect width="183.8" height="23.0329" fill="white" transform="translate(0 1)"/>
    </clipPath>
  </defs>
</svg>
